# xmcd
#
# Track frame offsets: 
#        150
#        16700
#        31735
#
# Disc length: 633 seconds
#
# Revision: 0
# Processed by: cddbd v1.5.2PL0 Copyright (c) Steve Scherf et al.
# Submitted via: ExactAudioCopy v1.1
#
DISCID=11027703
DTITLE=Faith Hill - Who I Am
DYEAR=1997
DGENRE=Country
TTITLE0=Who I Am
TTITLE1=It Matters To Me
TTITLE2=Where You Lead
EXTD=
EXTT0=
EXTT1=
EXTT2=
PLAYORDER=
